<?xml version="1.0" encoding="UTF-8"?>
<svg width="16px" height="13px" viewBox="0 0 16 13" version="1.1" xmlns="http://www.w3.org/2000/svg" xmlns:xlink="http://www.w3.org/1999/xlink">
    <!-- Generator: sketchtool 55.2 (78181) - https://sketchapp.com -->
    <title>EACB9018-D8F5-4673-95EF-6436D4422ED9</title>
    <desc>Created with sketchtool.</desc>
    <g id="Page-1" stroke="none" stroke-width="1" fill="none" fill-rule="evenodd">
        <g id="Modules" transform="translate(-130.000000, -131.000000)" fill="#6C6D70" fill-rule="nonzero">
            <g id="back" transform="translate(130.000000, 126.000000)">
                <path d="M15.1177945,10.4811912 L3.4085213,10.4811912 L7.09774436,6.73197492 C7.49874687,6.32445141 7.49874687,5.67241379 7.09774436,5.30564263 C6.69674185,4.89811912 6.05513784,4.89811912 5.69423559,5.30564263 L0.280701754,10.7664577 C0.0802005013,10.9702194 0,11.2554859 0,11.5 C0,11.7445141 0.0802005013,12.0297806 0.280701754,12.2335423 L5.65413534,17.6943574 C6.05513784,18.1018809 6.69674185,18.1018809 7.05764411,17.6943574 C7.45864662,17.2868339 7.45864662,16.6347962 7.05764411,16.2680251 L3.36842105,12.5188088 L15.0776942,12.5188088 C15.5989975,12.5188088 16,12.0705329 16,11.5 C16,10.9294671 15.6390977,10.4811912 15.1177945,10.4811912 Z" id="back-icon"></path>
            </g>
        </g>
    </g>
</svg>