<?xml version="1.0" encoding="UTF-8"?>
<svg width="25px" height="21px" viewBox="0 0 25 21" version="1.1" xmlns="http://www.w3.org/2000/svg" xmlns:xlink="http://www.w3.org/1999/xlink">
    <!-- Generator: sketchtool 55.2 (78181) - https://sketchapp.com -->
    <title>63E8A610-8F96-42CA-83D7-52310BF84585</title>
    <desc>Created with sketchtool.</desc>
    <g id="Page-1" stroke="none" stroke-width="1" fill="none" fill-rule="evenodd">
        <g id="Modules" transform="translate(-908.000000, -230.000000)" fill="#6C6D70">
            <g id="Group-2" transform="translate(493.000000, 228.000000)">
                <path d="M437.079248,10.3542875 C435.688896,11.6802277 433.824096,12.7846542 431.854824,13.4645128 C431.037108,14.6168554 429.993559,15.543364 428.668404,16.1057888 C428.858497,16.8029286 429.521467,18.7996941 431.111732,20.0549384 L432.526434,20.0549384 L432.526434,22.697 L421.824652,22.697 L421.824652,20.0549384 L423.239354,20.0549384 C424.829226,18.8000868 425.491803,16.8033214 425.682289,16.1057888 C424.357135,15.543364 423.313192,14.6168554 422.495869,13.4652983 C420.526597,12.7846542 418.661797,11.6802277 417.271445,10.3542875 C415.507583,8.67172589 414.729929,6.8874408 415.083408,5.32977524 C415.354016,4.13776441 416.141882,3.3400794 417.303651,3.08557428 C418.089161,2.91119115 418.995246,3.021948 419.849095,3.34479245 C419.840847,2.8829128 419.844775,2.43242304 419.856164,2 L427.175543,2 L434.495314,2 C434.505919,2.43242304 434.509846,2.8829128 434.502384,3.34479245 C435.356626,3.021948 436.262711,2.91119115 437.047435,3.08557428 C438.209597,3.33968664 438.997463,4.13776441 439.267678,5.32977524 C439.620372,6.8874408 438.84311,8.67172589 437.079248,10.3542875 Z M436.680995,4.7461416 C436.00742,4.59728753 435.130006,4.8235143 434.406552,5.27086202 C434.24238,7.22167514 433.857873,9.25614504 433.137561,11.0636027 C434.173255,10.5267068 435.126864,9.86609325 435.904519,9.12457218 C437.180972,7.90546126 437.817627,6.62900814 437.608289,5.7064271 C437.485357,5.16324721 437.190005,4.85807672 436.680995,4.7461416 Z M417.669306,4.7461416 C417.160295,4.85807672 416.864944,5.16324721 416.742797,5.7064271 C416.533066,6.6294009 417.170114,7.90546126 418.446567,9.12457218 C419.223829,9.86609325 420.177438,10.5263141 421.213525,11.0636027 C420.493213,9.25614504 420.108706,7.22167514 419.944142,5.27086202 C419.220294,4.82312154 418.34288,4.59689478 417.669306,4.7461416 Z" id="cup-icon"></path>
            </g>
        </g>
    </g>
</svg>