<?xml version="1.0" encoding="UTF-8"?>
<svg width="96px" height="99px" viewBox="0 0 96 99" version="1.1" xmlns="http://www.w3.org/2000/svg" xmlns:xlink="http://www.w3.org/1999/xlink">
    <!-- Generator: sketchtool 54.1 (76490) - https://sketchapp.com -->
    <title>510C4B08-A66C-48E4-996F-3FFF31504EE9</title>
    <desc>Created with sketchtool.</desc>
    <g id="Page-1" stroke="none" stroke-width="1" fill="none" fill-rule="evenodd">
        <g id="Personalized-unlocked--eBook" transform="translate(-672.000000, -416.000000)" fill-rule="nonzero">
            <g id="ebook-icon" transform="translate(668.480033, 412.081734)">
                <g transform="translate(51.500000, 54.000000) rotate(36.000000) translate(-51.500000, -54.000000) translate(19.000000, 12.000000)" id="Group">
                    <g transform="translate(1.114476, 0.557238)">
                        <path d="M2.57443931,71.647426 C1.32622631,72.9017686 0.557237945,74.6381221 0.557237945,76.5477765 L0.557237945,7.45250028 C0.557237945,3.62706178 3.63876378,0.524360906 7.45027133,0.524360906 L54.9603785,0.524360906 C58.7663137,0.524360906 61.8534119,3.62706178 61.8534119,7.45250028 L61.8534119,28.5277966 L61.8534119,50.3648372 L61.8534119,62.1320309 C61.8534119,65.9574694 58.7663137,69.6201944 54.9603785,69.6201944 L41.2356079,69.6201944 L7.45027133,69.6201944 C5.54451755,69.6196371 3.8226523,70.3925262 2.57443931,71.647426 Z" id="Shape" fill="#FEC900"></path>
                        <path d="M61.8478395,74.4637066 C61.8478395,78.2696418 58.7607413,81.9139779 54.9548061,81.9139779 L7.79575885,81.9139779 L5.91786698,81.9139779 C2.95336111,81.9139779 0.551665566,79.5122824 0.551665566,76.5477765 C0.551665566,74.6475951 1.32065393,72.9201575 2.56886693,71.6719445 C3.81707992,70.4237315 5.53894517,69.6547431 7.44469895,69.6547431 L41.2300356,69.6547431 L54.9548061,69.6547431 C58.7607413,69.6547431 61.8478395,66.010407 61.8478395,62.2044718 L61.8478395,74.4637066 Z" id="Shape" fill="#FDE2DD"></path>
                        <path d="M8.91580712,76.5477765 C8.91580712,74.6475951 9.68479549,72.9201575 10.9330085,71.6719445 C12.1812215,70.4237315 13.9030867,69.6547431 15.8088405,69.6547431 L7.44469895,69.6547431 C5.53894517,69.6547431 3.81707992,70.4237315 2.56886693,71.6719445 C1.32065393,72.9201575 0.551665566,74.6475951 0.551665566,76.5477765 C0.551665566,79.5122824 2.95336111,81.9139779 5.91786698,81.9139779 L7.79575885,81.9139779 L14.2820085,81.9139779 C11.3175027,81.9139779 8.91580712,79.5122824 8.91580712,76.5477765 Z" id="Shape" fill="#ECCACA"></path>
                        <path d="M56.2810325,69.5020599 L56.2810325,74.4637066 C56.2810325,78.2696418 53.1939342,81.9139779 49.3879991,81.9139779 L54.9548061,81.9139779 C58.7607413,81.9139779 61.8478395,78.2696418 61.8478395,74.4637066 L61.8478395,62.2044718 C61.8478395,65.5562581 59.4522736,68.7798796 56.2810325,69.5020599 Z" id="Shape" fill="#ECCACA"></path>
                        <path d="M54.9581496,0.524360906 L49.4197616,0.524360906 C53.2061935,0.524360906 56.277689,3.61145912 56.277689,7.41739429 L56.277689,28.3857009 L56.277689,50.1118512 L56.277689,62.1699231 C56.277689,65.9758582 53.2061935,69.6201944 49.4197616,69.6201944 L54.9581496,69.6201944 C58.7445814,69.6201944 61.816077,65.9758582 61.816077,62.1699231 L61.816077,50.1112939 L61.816077,28.3857009 L61.816077,7.41739429 C61.816077,3.61145912 58.7445814,0.524360906 54.9581496,0.524360906 Z" id="Shape" fill="#E1B307"></path>
                        <path d="M11.6919666,7.42018048 C11.6919666,3.6125736 14.7590042,0.524360906 18.5532374,0.524360906 L7.45472923,0.524360906 C3.6610533,0.524360906 0.593458412,3.6125736 0.593458412,7.42018048 L0.593458412,76.5477765 C0.593458412,74.6464807 1.35910335,72.9184858 2.60118673,71.6697155 C3.84382735,70.4209453 5.55733403,69.6513997 7.45472923,69.6513997 L11.6925238,69.6513997 L11.6925238,7.42018048 L11.6919666,7.42018048 Z" id="Shape" fill="#E1B307"></path>
                        <path d="M6.1457773,7.42018048 C6.1457773,3.6125736 9.21281495,0.524360906 13.0070481,0.524360906 L7.45472923,0.524360906 C3.6610533,0.524360906 0.593458412,3.6125736 0.593458412,7.42018048 L0.593458412,76.5477765 C0.593458412,74.6464807 1.35910335,72.9184858 2.60118673,71.6697155 C3.55016295,70.7162814 4.77497195,70.0453669 6.14522006,69.7801217 L6.14522006,7.42018048 L6.1457773,7.42018048 Z" id="Shape" fill="#FFD226"></path>
                    </g>
                    <g fill="#58595B">
                        <path d="M56.069282,0 L8.55917484,0 C4.14362136,0 0.551665566,3.59195579 0.551665566,8.00750927 L0.551665566,77.1050145 C0.551665566,80.6785814 3.45877593,83.5856918 7.03234287,83.5856918 L56.069282,83.5856918 C60.3349385,83.5856918 64.0767913,79.5830516 64.0767913,75.0209446 L64.0767913,50.7030806 L64.0767913,28.9763731 L64.0767913,8.00750927 C64.0767913,3.59195579 60.4848355,0 56.069282,0 Z M2.78061735,8.00750927 C2.78061735,5.47932071 4.41555348,3.3306112 6.68128296,2.54824912 L6.68128296,13.9309486 C6.68128296,14.5461393 7.18056816,15.0454245 7.79575885,15.0454245 C8.41094954,15.0454245 8.91023474,14.5461393 8.91023474,13.9309486 L8.91023474,2.22895178 L56.069282,2.22895178 C59.2555686,2.22895178 61.8478395,4.8212227 61.8478395,8.00750927 L61.8478395,28.9763731 L61.8478395,50.7030806 L61.8478395,62.7617098 C61.8478395,66.0778328 59.0939696,69.0975052 56.069282,69.0975052 L42.3445114,69.0975052 L8.55917484,69.0975052 C6.41715218,69.0975052 4.40608043,69.9300187 2.89540836,71.441248 C2.85472999,71.4819264 2.82018124,71.5265054 2.78061735,71.567741 L2.78061735,8.00750927 Z M61.8478395,75.0209446 C61.8478395,78.3370676 59.0939696,81.35674 56.069282,81.35674 L7.03234287,81.35674 C4.68804283,81.35674 2.78061735,79.4493145 2.78061735,77.1050145 C2.78061735,75.5597936 3.38076261,74.1076316 4.47127727,73.0171169 C5.56123469,71.9266022 7.01339678,71.326457 8.55917484,71.326457 L42.3445114,71.326457 L56.069282,71.326457 C58.2909897,71.326457 60.3650294,70.2348278 61.8478395,68.5497403 L61.8478395,75.0209446 Z" id="Shape"></path>
                        <path d="M52.3803668,75.2271226 L8.3529968,75.2271226 C7.73780611,75.2271226 7.23852091,75.7264078 7.23852091,76.3415985 C7.23852091,76.9567892 7.73780611,77.4560744 8.3529968,77.4560744 L52.3803668,77.4560744 C52.9955575,77.4560744 53.4948427,76.9567892 53.4948427,76.3415985 C53.4948427,75.7264078 52.9955575,75.2271226 52.3803668,75.2271226 Z" id="Shape"></path>
                        <path d="M7.79575885,28.9763731 C8.41094954,28.9763731 8.91023474,28.4770879 8.91023474,27.8618973 L8.91023474,18.9460901 C8.91023474,18.3308994 8.41094954,17.8316142 7.79575885,17.8316142 C7.18056816,17.8316142 6.68128296,18.3308994 6.68128296,18.9460901 L6.68128296,27.8618973 C6.68128296,28.4770879 7.18056816,28.9763731 7.79575885,28.9763731 Z" id="Shape"></path>
                        <path d="M7.79575885,60.738936 C8.41094954,60.738936 8.91023474,60.2396508 8.91023474,59.6244601 L8.91023474,32.8770388 C8.91023474,32.2618481 8.41094954,31.7625629 7.79575885,31.7625629 C7.18056816,31.7625629 6.68128296,32.2618481 6.68128296,32.8770388 L6.68128296,59.6244601 C6.68128296,60.2396508 7.18056816,60.738936 7.79575885,60.738936 Z" id="Shape"></path>
                    </g>
                </g>
            </g>
        </g>
    </g>
</svg>