<?xml version="1.0" encoding="UTF-8"?>
<svg width="19px" height="19px" viewBox="0 0 19 19" version="1.1" xmlns="http://www.w3.org/2000/svg" xmlns:xlink="http://www.w3.org/1999/xlink">
    <!-- Generator: sketchtool 54.1 (76490) - https://sketchapp.com -->
    <title>FE5EBDE3-B7C5-4DA5-8382-462FE399A096</title>
    <desc>Created with sketchtool.</desc>
    <g id="Page-1" stroke="none" stroke-width="1" fill="none" fill-rule="evenodd">
        <g id="Module-list-Done" transform="translate(-1177.000000, -129.000000)" fill="#000000" fill-rule="nonzero">
            <g id="Group-3" transform="translate(1164.000000, 116.000000)">
                <g id="discussion-icon" transform="translate(13.000000, 13.000000)">
                    <g id="Group-5">
                        <path d="M14,7.2 C14,9.850944 11.9123593,12 9.33482691,12 C9.33482691,10.675968 8.28857951,9.6 7.00112018,9.6 L4.66517309,9.6 C2.33370673,9.6 0,8.250048 0,4.8 C0,1.275072 2.33370673,0 4.66517309,0 L9.33482691,0 C11.6685336,0 14,1.48704 14,4.8 L14,7.2 Z" id="Shape"></path>
                        <path d="M15.2384019,7 C15.1650136,10.2822188 12.3994561,12.9354734 9.00159974,12.9354734 L7.75179971,12.9354734 L7.75179971,11.7225681 C7.75179971,11.0534325 7.19028955,10.5096628 6.50199968,10.5096628 L4.12697968,10.5096628 C4.04879219,10.8851783 4,11.2866985 4,11.7225681 L4,14.1483787 C4,16.8278321 6.2406415,19 9.00159974,19 C9.00159974,17.659206 10.1222204,16.5741894 11.5011998,16.5741894 L13.9984003,16.5741894 C16.5003999,16.5741894 19,15.2097194 19,11.7225681 C19,8.75551063 17.2596785,7.38036711 15.2384019,7 Z" id="Shape"></path>
                    </g>
                </g>
            </g>
        </g>
    </g>
</svg>