<?xml version="1.0" encoding="UTF-8"?>
<svg width="15px" height="22px" viewBox="0 0 15 22" version="1.1" xmlns="http://www.w3.org/2000/svg" xmlns:xlink="http://www.w3.org/1999/xlink">
    <!-- Generator: sketchtool 54.1 (76490) - https://sketchapp.com -->
    <title>7199098E-705C-48A0-AFD2-DEBB2E1A53FE</title>
    <desc>Created with sketchtool.</desc>
    <g id="Page-1" stroke="none" stroke-width="1" fill="none" fill-rule="evenodd" opacity="0.4">
        <g id="Module-list" transform="translate(-1022.000000, -1001.000000)" fill="#0D0D0D" fill-rule="nonzero">
            <g id="Group-8" transform="translate(370.000000, 672.000000)">
                <g id="lock-icon" transform="translate(652.000000, 329.000000)">
                    <path d="M14.1641489,8.46296074 L13.0851064,8.46296074 C13.0851064,7.47244567 13.0851064,5.73343138 13.0851064,5.72517709 C13.0851064,2.62189338 10.5054255,0 7.5,0 C4.49138298,0 2.23404255,2.68396566 1.91489362,5.79187177 C1.91489362,5.79682435 1.91489362,7.14227398 1.91489362,8.46296074 L0.816382979,8.46296074 C0.412340426,8.46296074 0,8.77233161 0,9.19032897 L0,21.2967343 C0,21.7144015 0.412340426,22 0.816382979,22 L14.1644681,22 C14.5681915,22 15,21.7144015 15,21.2967343 L15,9.19032897 C15,8.77233161 14.5681915,8.46296074 14.1641489,8.46296074 Z M3.82978723,5.72715812 C3.82978723,3.66292472 5.49957447,1.76476768 7.5,1.76476768 C9.4962766,1.76476768 11.1702128,3.6969324 11.1702128,5.72055469 C11.1702128,5.7297995 11.1702128,7.47244567 11.1702128,8.46296074 L3.82978723,8.46296074 C3.82978723,7.14227398 3.82978723,5.73244087 3.82978723,5.72715812 Z"></path>
                </g>
            </g>
        </g>
    </g>
</svg>