<?xml version="1.0" encoding="UTF-8"?>
<svg width="91px" height="88px" viewBox="0 0 91 88" version="1.1" xmlns="http://www.w3.org/2000/svg" xmlns:xlink="http://www.w3.org/1999/xlink">
    <!-- Generator: sketchtool 54.1 (76490) - https://sketchapp.com -->
    <title>E1BD4E1C-AC23-4FE2-80B5-AD119795A027</title>
    <desc>Created with sketchtool.</desc>
    <g id="Page-1" stroke="none" stroke-width="1" fill="none" fill-rule="evenodd">
        <g id="Module-Completed" transform="translate(-685.000000, -185.000000)" fill-rule="nonzero">
            <g id="Group-2" transform="translate(452.000000, 157.000000)">
                <g id="module-compl-icon" transform="translate(203.000000, 11.000000)">
                    <g transform="translate(65.000000, 62.500000) rotate(63.000000) translate(-65.000000, -62.500000) translate(21.000000, 13.000000)">
                        <path d="M70.5528696,52.292022 C70.6942405,52.7092806 70.7345099,53.1462454 70.6873862,53.6037734 C70.2709844,57.4190764 63.451762,62.5461309 54.2095266,65.7145546 C44.8867526,68.9103957 36.281115,69.0183518 33.7107335,66.1789369 C33.4288483,65.8696343 33.2206474,65.5192056 33.0861307,65.1362188 C31.7640978,61.2677945 39.087115,55.2590991 49.4303305,51.7128293 C59.7804003,48.1614188 69.237691,48.4235977 70.5528696,52.292022 Z" id="Shape" fill="#A88606"></path>
                        <path d="M26.6224778,50.924579 C26.5496504,50.924579 26.4759661,50.9151542 26.4022818,50.8963048 C25.4178257,50.6358394 24.6090123,49.9546883 24.1857561,49.0276373 C23.7616431,48.0997296 23.7753518,47.0433028 24.2243118,46.1273901 L25.0768217,44.390669 C25.2396125,44.0573761 25.2644596,43.6803868 25.1436516,43.3291014 C25.0228437,42.9778159 24.7735167,42.6950739 24.4410807,42.5314263 C23.9638465,42.2975216 23.4077873,42.3523564 22.9871015,42.6727973 L16.0890541,47.9309412 C15.2168379,48.5958132 14.1175714,48.796303 13.0662853,48.4750053 C12.0175696,48.156278 11.213897,47.379166 10.8591843,46.3415886 C10.4153651,45.0461163 10.7203837,43.6983795 11.6345828,42.769615 L16.0959084,38.2380322 C16.5748562,37.7513733 16.7350767,37.0470888 16.5140238,36.401923 C16.1935829,35.4680177 15.174855,34.9642229 14.2400929,35.2863774 L11.4752191,36.2322778 C10.5001877,36.5655706 9.45489921,36.4995975 8.52956183,36.0463535 C7.60508126,35.5931096 6.91193502,34.8065728 6.579499,33.8315414 C6.24620619,32.8573668 6.31217932,31.8120783 6.76542327,30.8867409 C7.21866722,29.9622603 8.00520399,29.2691141 8.98023541,28.9358213 L10.1968827,28.5202762 C10.6449859,28.3669101 11.1316448,28.6059556 11.2850109,29.0540588 C11.438377,29.5013052 11.1984747,29.9888209 10.7512283,30.142187 L9.53458103,30.557732 C8.99308731,30.7427995 8.55612244,31.1275 8.30422505,31.6415763 C8.05232765,32.1556526 8.01548552,32.7365588 8.20140978,33.2780526 C8.38647726,33.8195463 8.7711777,34.2565112 9.28525402,34.5084085 C9.79847354,34.7594491 10.3802366,34.7971481 10.9208735,34.6120806 L13.6866041,33.6661802 C15.5124318,33.0407207 17.5096183,34.020036 18.1359346,35.8475774 C18.5677587,37.1113483 18.255029,38.488216 17.3176965,39.440114 L12.8563708,43.9716968 C12.3996997,44.436079 12.2480472,45.1103758 12.4613889,45.7341217 C12.6550243,46.2978921 13.050863,46.6800222 13.5649394,46.8368154 C14.0798725,46.9944655 14.622223,46.896791 15.0497631,46.5694958 L21.9478105,41.3113518 C22.889427,40.5933586 24.1343485,40.470837 25.1950593,40.9934813 C25.9387563,41.3576187 26.4973859,41.9899326 26.7655624,42.7747557 C27.0328821,43.5595789 26.9806177,44.4009505 26.6147667,45.1463611 L25.7631136,46.8822255 C25.5420608,47.3346127 25.5343496,47.8581137 25.7451209,48.3164984 C25.9541786,48.7748832 26.3534446,49.1116031 26.8409603,49.2401222 C27.2976314,49.3609302 27.5709486,49.8295964 27.4501407,50.2879811 C27.3481822,50.670968 27.0011807,50.924579 26.6224778,50.924579 Z" id="Shape" fill="#45C1FF"></path>
                        <path d="M57.3856615,33.7887017 C57.2040212,33.7887017 57.0206673,33.7312965 56.8664444,33.6122022 C56.4903119,33.3251762 56.419198,32.7871097 56.7062239,32.4109772 C57.0120994,32.0108544 57.121769,31.5002053 57.0069586,31.0092624 C56.8912914,30.5191763 56.5657098,30.1104856 56.1133226,29.888576 L54.3766014,29.0369229 C53.6320476,28.6719288 53.0742748,28.0387581 52.8060983,27.2547917 C52.5387786,26.4699685 52.591043,25.628597 52.956894,24.8840431 C53.4778247,23.8216187 54.5368219,23.1558899 55.7191974,23.1473219 L64.3908081,23.0787784 C64.9297314,23.0744944 65.4163904,22.8200267 65.7291201,22.3804914 C66.0401363,21.9409562 66.1189613,21.3968921 65.9450322,20.8870997 C65.712841,20.2093758 65.1799152,19.7681269 64.5347495,19.6815908 L58.2338874,18.8316512 C56.9101409,18.6525813 55.8194423,17.7563749 55.3867614,16.492604 C55.0834564,15.6066791 55.1442887,14.6564947 55.5555498,13.8151232 C55.9676676,12.9746084 56.6822337,12.3448649 57.5690154,12.0424167 L60.3338892,11.0965162 C61.4511484,10.7143862 62.0483337,9.49431172 61.6670604,8.37619573 C61.2849303,7.25893653 60.0691399,6.66003762 58.9467399,7.04302448 L57.7309494,7.4585695 C57.2845598,7.61107881 56.7961873,7.37289012 56.6428212,6.92478693 C56.4894551,6.47668374 56.7285006,5.99002482 57.1766038,5.83665872 L58.3923943,5.4211137 C60.4050031,4.73482181 62.6001089,5.81095491 63.2881144,7.8218501 C63.9752631,9.83360209 62.89913,12.0295648 60.887378,12.7175702 L58.1216474,13.6643275 C57.6692602,13.8194071 57.3042661,14.1407048 57.0934948,14.5708154 C56.8827235,15.0000691 56.8527357,15.4858712 57.0069586,15.9382584 C57.2280114,16.5842809 57.7849274,17.0426657 58.4617946,17.1334858 L64.7626566,17.9834253 C66.0547018,18.1582113 67.1214101,19.036425 67.5455231,20.2779193 C67.919942,21.3703315 67.7588648,22.4773091 67.1248373,23.3718019 C66.4916667,24.2654379 65.4994994,24.7829414 64.4028032,24.7923661 L55.7311925,24.8600529 C55.2016939,24.8643368 54.7270301,25.1625011 54.4939822,25.6380217 C54.3311914,25.9713145 54.3063443,26.3483038 54.4271523,26.6995893 C54.5479602,27.0508748 54.7972872,27.3344735 55.13058,27.4981212 L56.8673012,28.3497743 C57.782357,28.7978775 58.4412315,29.6246835 58.6742794,30.6168508 C58.9073274,31.6098749 58.6862746,32.6431683 58.0659558,33.4528385 C57.8980242,33.6730345 57.6435564,33.7887017 57.3856615,33.7887017 Z" id="Shape" fill="#FFE492"></path>
                        <path d="M24.360542,24.3665396 C23.8438953,24.3665396 23.3315326,24.248302 22.8542984,24.0143973 C22.0326331,23.6117042 21.4165983,22.9125604 21.1210044,22.0463418 C20.5092536,20.258213 21.4662924,18.3055798 23.2544212,17.693829 C24.1206398,17.3982351 25.0511179,17.4573539 25.8719264,17.8591902 C26.6944485,18.2618833 27.3104833,18.9610271 27.6060772,19.8272457 L27.6060772,19.8272457 C27.9025279,20.6934643 27.8434091,21.6230856 27.440716,22.4456078 C27.0380229,23.2681299 26.3388791,23.8833079 25.4718037,24.1797585 C25.1085231,24.3048504 24.7341042,24.3665396 24.360542,24.3665396 Z M24.364826,19.223206 C24.1780449,19.223206 23.9904071,19.2540506 23.8087668,19.3165966 C22.9151308,19.622472 22.436183,20.5983602 22.7429152,21.492853 C22.8911406,21.9263907 23.1987296,22.2759626 23.6099906,22.4773091 C24.0203949,22.6786557 24.4839204,22.7086435 24.9183148,22.5595613 C25.3518525,22.411336 25.7005676,22.103747 25.9019142,21.6924859 C26.1032608,21.2812249 26.1332485,20.8168426 25.9850232,20.3833049 L25.9850232,20.3833049 C25.8367979,19.950624 25.5292089,19.6010521 25.1179478,19.3997056 C24.8789023,19.281468 24.622721,19.223206 24.364826,19.223206 Z" id="Shape" fill="#FFC9ED"></path>
                        <path d="M73.198649,36.3616537 C72.6828591,36.3616537 72.1704964,36.2434161 71.6932622,36.0103682 C70.8707401,35.6068183 70.2547053,34.9076745 69.9591114,34.0423127 C69.6626607,33.1760941 69.7217795,32.2464727 70.1244726,31.4239506 C70.5271657,30.6014285 71.2263095,29.9862505 72.0933849,29.6897999 C72.9596035,29.394206 73.8900817,29.4533248 74.7108902,29.8551611 C75.5334123,30.2578542 76.1494471,30.956998 76.445041,31.8232166 L76.445041,31.8232166 C77.0567918,33.6113454 76.0988962,35.5631218 74.3107674,36.1748726 C73.9474868,36.2999645 73.5730679,36.3616537 73.198649,36.3616537 Z M73.2037898,31.2183201 C73.0170087,31.2183201 72.8293709,31.2491647 72.6477306,31.3117106 C72.2141929,31.459936 71.8654778,31.767525 71.6641312,32.178786 C71.4627846,32.5900471 71.4327969,33.0544294 71.5810222,33.4879671 C71.7292475,33.9215048 72.0368365,34.2710766 72.4480976,34.4724232 C72.8593586,34.6737698 73.3237409,34.7037575 73.7564218,34.5546754 C74.6509146,34.2488 75.1298624,33.2729118 74.823987,32.378419 L74.823987,32.378419 C74.6757616,31.9457381 74.3681726,31.5961662 73.9569116,31.3948197 C73.7178661,31.2765821 73.4616847,31.2183201 73.2037898,31.2183201 Z" id="Shape" fill="#45C1FF"></path>
                        <circle id="Oval" fill="#FFE492" transform="translate(18.794638, 3.373034) rotate(-18.880666) translate(-18.794638, -3.373034) " cx="18.7946377" cy="3.37303365" r="1.28519812"></circle>
                        <circle id="Oval" fill="#C1FF8F" transform="translate(46.212298, 5.087050) rotate(-18.880666) translate(-46.212298, -5.087050) " cx="46.2122984" cy="5.08704977" r="1.28519812"></circle>
                        <circle id="Oval" fill="#C1FF8F" transform="translate(1.657904, 51.353747) rotate(-18.880666) translate(-1.657904, -51.353747) " cx="1.65790369" cy="51.353747" r="1.28519812"></circle>
                        <path d="M39.7485598,56.2555504 C34.9565117,59.2860303 32.237048,62.6523734 33.0861307,65.1362188 C33.2206474,65.5200624 33.4279915,65.8696343 33.7107335,66.1789369 C35.8475774,68.5385472 42.1561506,68.8555609 49.577699,67.0622914 L39.7485598,56.2555504 Z" id="Shape" fill="#E1B307"></path>
                        <circle id="Oval" fill="#FFC9ED" transform="translate(19.650489, 55.638316) rotate(-18.880666) translate(-19.650489, -55.638316) " cx="19.6504891" cy="55.6383161" r="1.28519812"></circle>
                        <circle id="Oval" fill="#FFE492" transform="translate(37.643589, 58.208955) rotate(-18.880666) translate(-37.643589, -58.208955) " cx="37.6435887" cy="58.2089547" r="1.28519812"></circle>
                        <circle id="Oval" fill="#FFC9ED" transform="translate(64.204541, 53.068449) rotate(-18.880666) translate(-64.204541, -53.068449) " cx="64.2045411" cy="53.0684486" r="1.28519812"></circle>
                        <circle id="Oval" fill="#FFC9ED" transform="translate(65.918900, 1.660303) rotate(-18.880666) translate(-65.918900, -1.660303) " cx="65.9189" cy="1.66030272" r="1.28519812"></circle>
                        <circle id="Oval" fill="#45C1FF" transform="translate(41.928158, 17.939215) rotate(-18.880666) translate(-41.928158, -17.939215) " cx="41.9281577" cy="17.9392148" r="1.28519812"></circle>
                        <circle id="Oval" fill="#FFE492" transform="translate(77.913843, 20.510110) rotate(-18.880666) translate(-77.913843, -20.510110) " cx="77.9138427" cy="20.5101104" r="1.28519812"></circle>
                        <circle id="Oval" fill="#C1FF8F" transform="translate(85.625244, 10.228584) rotate(-18.880666) translate(-85.625244, -10.228584) " cx="85.6252445" cy="10.2285841" r="1.28519812"></circle>
                        <path d="M44.7273889,69.7740439 C44.4934842,69.7740439 44.2595795,69.6789398 44.0907911,69.4904452 C43.7823453,69.1477276 43.5492974,68.7510321 43.3985017,68.31064 C43.102051,67.4435646 43.1611698,66.5139433 43.5638629,65.692278 C43.9674128,64.8697559 44.6656998,64.2537211 45.5327752,63.9581272 C46.3989938,63.6608197 47.3294719,63.7225089 48.1502804,64.1234884 C48.9728025,64.5270383 49.5888373,65.2261821 49.8844312,66.0924007 C50.1363286,66.8301002 50.1320446,67.6097826 49.8715793,68.3449118 C49.714786,68.7913014 49.2246999,69.0260629 48.7791671,68.8666992 C48.3327775,68.7090492 48.0988728,68.2198199 48.2573797,67.7742871 C48.3867555,67.4050089 48.3893259,67.0151677 48.2633772,66.6467463 C48.1151519,66.2140654 47.8075629,65.8644935 47.3963018,65.663147 C46.9850408,65.4618004 46.5215153,65.4318126 46.0871208,65.580038 C45.6535831,65.7282633 45.304868,66.0358523 45.1035215,66.4471134 C44.9021749,66.8583744 44.8721871,67.3227567 45.0204125,67.7562944 C45.0958103,67.9764904 45.2123343,68.1744098 45.3639868,68.3449118 C45.6810005,68.6970541 45.6518695,69.2385478 45.300584,69.5547047 C45.1360796,69.7012165 44.9313059,69.7740439 44.7273889,69.7740439 Z" id="Shape" fill="#FFE492"></path>
                        <path d="M54.5342515,57.952859 C54.1778253,57.952859 53.8453892,57.7292358 53.7237245,57.3728096 C53.5703584,56.9255632 53.8094039,56.4380475 54.2575071,56.2846814 L55.4732976,55.8691363 C56.0147913,55.6840689 56.4517562,55.2993684 56.7036536,54.7852921 C56.955551,54.2712158 56.9923931,53.6911663 56.8064688,53.1496726 C56.6214014,52.6073221 56.2367009,52.1703572 55.7226246,51.9184598 C55.2085483,51.668276 54.6267852,51.6305771 54.0870051,51.8156446 L51.3221313,52.761545 C49.49459,53.3861477 47.4974035,52.4085459 46.871944,50.5801478 C46.4401199,49.3146633 46.7545632,47.9386523 47.6910389,46.9867544 L52.1515078,42.4560284 C52.6081789,41.9916461 52.7598314,41.3173494 52.5464897,40.6936034 C52.3537111,40.1298331 51.9578724,39.747703 51.4429392,39.5909097 C50.9271493,39.4324029 50.3856556,39.531791 49.9581155,39.8582294 L43.0609249,45.1163734 C42.1175948,45.8343666 40.8735302,45.9560313 39.8128194,45.4342439 C39.0691223,45.0701065 38.5104927,44.4377926 38.2423162,43.6529694 C37.9749965,42.8681463 38.0272609,42.0267747 38.3931119,41.281364 L39.244765,39.5454997 C39.4666746,39.0931125 39.473529,38.5704683 39.2636145,38.1120835 C39.0537,37.6536988 38.6552908,37.316122 38.1677751,37.187603 C37.711104,37.0659382 37.43693,36.5981288 37.5585947,36.1397441 C37.6794026,35.6822161 38.1523528,35.4114693 38.6064536,35.5305636 C39.5909097,35.791029 40.3997231,36.4730369 40.8229793,37.4000878 C41.2462355,38.3279956 41.2325268,39.3844224 40.78271,40.3003351 L39.9310569,42.0361994 C39.7682661,42.3694922 39.743419,42.7464815 39.864227,43.097767 C39.9850349,43.4490525 40.2343619,43.7317945 40.566798,43.8954421 C41.0423185,44.1293468 41.6009481,44.074512 42.0224907,43.7532143 L48.9188245,38.4959272 C49.7910407,37.8319119 50.8920208,37.6331358 51.9407365,37.9510063 C52.9894522,38.2697336 53.7948384,39.0477024 54.1495511,40.084423 C54.5925135,41.3807521 54.2874949,42.7284889 53.3732958,43.6572534 L48.912827,48.1888362 C48.4330224,48.6754951 48.272802,49.3797796 48.4938548,50.0258022 C48.8134389,50.9588507 49.8304532,51.4592183 50.7686425,51.140491 L53.5326595,50.1945906 C54.5076909,49.8612978 55.5529794,49.9272709 56.4783168,50.3805149 C57.4036541,50.8337588 58.0959436,51.6202956 58.4283796,52.595327 C58.7616724,53.5695016 58.6956993,54.6147901 58.2424553,55.5409843 C57.7892114,56.4654649 57.0026746,57.1586111 56.0276432,57.4910471 L54.8118527,57.9065921 C54.7201758,57.9382935 54.6259284,57.952859 54.5342515,57.952859 Z" id="Shape" fill="#C1FF8F"></path>
                        <path d="M67.2910553,96.4237603 C67.1034175,98.7722322 64.2100246,99.7609723 62.6326671,98.025108 L33.6901704,66.1994999 C36.281115,69.0183518 44.8867526,68.9103957 54.2095266,65.7145546 C63.451762,62.5452741 70.2718412,57.4182196 70.6873862,53.6037734 L67.2910553,96.4237603 Z" id="Shape" fill="#E1B307"></path>
                        <path d="M49.1364502,67.1736746 C41.9059668,68.8495634 35.8047377,68.4931371 33.7107335,66.1797937 L33.6910272,66.2003567 L62.6335239,98.0259648 C64.2108814,99.7618291 67.1042743,98.773089 67.2919121,96.424617 L67.9756336,87.8892366 L49.1364502,67.1736746 Z" id="Shape" fill="#FEC900"></path>
                    </g>
                </g>
            </g>
        </g>
    </g>
</svg>