<?xml version="1.0" encoding="UTF-8"?>
<svg width="27px" height="21px" viewBox="0 0 27 21" version="1.1" xmlns="http://www.w3.org/2000/svg" xmlns:xlink="http://www.w3.org/1999/xlink">
    <!-- Generator: sketchtool 54.1 (76490) - https://sketchapp.com -->
    <title>2969C650-9D0B-44FE-88DB-D81E1A704FB7</title>
    <desc>Created with sketchtool.</desc>
    <g id="Page-1" stroke="none" stroke-width="1" fill="none" fill-rule="evenodd">
        <g id="Topics-list" transform="translate(-929.000000, -19.000000)" fill="#FFFFFF">
            <g id="Header">
                <g id="Group">
                    <g id="Group-12">
                        <g id="notifications-icon" transform="translate(927.000000, 18.000000)">
                            <path d="M17.5,22 C18.6,22 19.5,21.1 19.5,20 L15.5,20 C15.5,21.1 16.4,22 17.5,22 L17.5,22 Z M24,16 L24,10.5 C24,7.4 21.9,4.9 19,4.2 L19,3.5 C19,2.7 18.3,2 17.5,2 C16.7,2 16,2.7 16,3.5 L16,4.2 C13.1,4.9 11,7.4 11,10.5 L11,16 L9,18 L9,19 L26,19 L26,18 L24,16 L24,16 Z" id="Shape" transform="translate(17.500000, 12.000000) rotate(-15.000000) translate(-17.500000, -12.000000) "></path>
                            <g id="Group-9" transform="translate(21.000000, 1.000000)" fill-rule="nonzero">
                                <path d="M0.2954462,1.41709711 C2.94173981,3.54924553 4.4596381,6.75345386 4.4596381,10.2074105 C4.4596381,10.6453987 4.80461498,11 5.22981905,11 C5.65542425,11 6,10.6449859 6,10.2074105 C6,6.26262628 4.26709286,2.60350457 1.24533604,0.168768584 C0.909986416,-0.101207227 0.425815371,-0.0409373977 0.163873621,0.304169297 C-0.0984692657,0.648863185 -0.0395022867,1.1471213 0.2954462,1.41709711 Z" id="Shape"></path>
                                <path d="M6.55979332,4.43223943 C6.66336265,4.78009579 6.95135468,5 7.2605226,5 C7.33868087,5 7.41799418,4.98612044 7.49576743,4.95662639 C7.88309362,4.81002358 8.09138732,4.33768495 7.96125188,3.90178016 C7.58278107,2.63266829 7.03682825,1.43642408 6.3391791,0.346011492 C6.10085414,-0.0274353026 5.63921985,-0.111580109 5.30695097,0.157336282 C4.97583713,0.426252673 4.90075899,0.947169747 5.13985398,1.3201828 C5.7504895,2.27483599 6.22829447,3.32187497 6.55979332,4.43223943 Z" id="Shape"></path>
                            </g>
                            <g id="Group-7" transform="translate(6.500000, 10.500000) rotate(-163.000000) translate(-6.500000, -10.500000) translate(2.000000, 5.000000)" fill-rule="nonzero">
                                <path d="M0.297312152,1.38572898 C2.96031898,3.47068128 4.48780387,6.60396292 4.48780387,9.98146453 C4.48780387,10.4097577 4.83495953,10.7565097 5.26284906,10.7565097 C5.69114226,10.7565097 6.03789425,10.4093541 6.03789425,9.98146453 C6.03789425,6.12400004 4.29404258,2.54587475 1.25320122,0.165032811 C0.915733625,-0.0989669567 0.428504697,-0.0400312288 0.164908599,0.297436364 C-0.0990911689,0.634500287 -0.0397517716,1.12172922 0.297312152,1.38572898 Z" id="Shape"></path>
                                <path d="M6.63536227,4.12499498 C6.74394933,4.44873781 7.04589402,4.65339818 7.37004052,4.65339818 C7.4519854,4.65339818 7.53514129,4.64048076 7.61668251,4.61303124 C8.02277389,4.476591 8.24115902,4.03699505 8.10471877,3.63130734 C7.70791178,2.45017076 7.13550862,1.33685064 6.40405972,0.322025849 C6.15418838,-0.0255334775 5.67018881,-0.103845335 5.32182214,0.146429674 C4.97466648,0.396704683 4.89595096,0.881511595 5.14662964,1.22866725 C5.78684926,2.11714353 6.28780294,3.09160139 6.63536227,4.12499498 Z" id="Shape"></path>
                            </g>
                        </g>
                    </g>
                </g>
            </g>
        </g>
    </g>
</svg>