<?xml version="1.0" encoding="UTF-8"?>
<svg width="25px" height="23px" viewBox="0 0 25 23" version="1.1" xmlns="http://www.w3.org/2000/svg" xmlns:xlink="http://www.w3.org/1999/xlink">
    <!-- Generator: sketchtool 54.1 (76490) - https://sketchapp.com -->
    <title>A85929B4-7495-4D5A-AD7B-10B87A8ED133</title>
    <desc>Created with sketchtool.</desc>
    <g id="Page-1" stroke="none" stroke-width="1" fill="none" fill-rule="evenodd">
        <g id="Connection-error-bar" transform="translate(-513.000000, -78.000000)" fill="#FFFFFF" fill-rule="nonzero">
            <g id="Group-5" transform="translate(0.000000, 56.000000)">
                <g id="Group" transform="translate(513.000000, 21.000000)">
                    <g id="warning-icon" transform="translate(0.000000, 1.000000)">
                        <path d="M12.5175169,16 C11.6919877,16 11,16.684 11,17.5 C11,18.316 11.6919877,19 12.5175169,19 C13.3126957,19 14.0350338,18.316 13.9986134,17.536 C14.0350338,16.678 13.3491161,16 12.5175169,16 Z" id="Shape"></path>
                        <path d="M24.3916411,20.7449966 C25.1984852,19.3433776 25.2036243,17.6728131 24.4019194,16.2763661 L16.3540349,2.24983135 C15.5574691,0.837868226 14.1185115,0 12.5048233,0 C10.8911351,0 9.45217746,0.843040252 8.65561163,2.24465932 L0.597448922,16.2867101 C-0.204256042,17.6986733 -0.199116907,19.3795817 0.612866325,20.7812008 C1.41457129,22.1673038 2.84838978,23 4.45179971,23 L20.5270121,23 C22.1355611,23 23.5796579,22.1569597 24.3916411,20.7449966 Z M22.6443354,19.7312795 C22.1972307,20.5070834 21.405804,20.9673937 20.5218729,20.9673937 L4.44666057,20.9673937 C3.57300773,20.9673937 2.78672017,20.5174275 2.34989375,19.7571396 C1.90792819,18.9865078 1.90278906,18.0658871 2.34475461,17.2900832 L10.4029173,3.25320441 C10.8397437,2.48257252 11.6208922,2.02743423 12.5048233,2.02743423 C13.3836153,2.02743423 14.1699028,2.48774455 14.6067292,3.25837643 L22.6597528,17.2952552 C23.0914401,18.050371 23.086301,18.9606476 22.6443354,19.7312795 Z" id="Shape"></path>
                        <path d="M12.1465347,7.03992382 C11.439604,7.23224868 11,7.84316297 11,8.58417937 C11.0356436,9.03105186 11.0653465,9.48358096 11.1009901,9.93045344 C11.2019802,11.6330942 11.3029703,13.3017952 11.4039604,15.004436 C11.439604,15.5814106 11.9089109,16 12.5148515,16 C13.1207921,16 13.5960396,15.5531275 13.6257426,14.9704963 C13.6257426,14.6197862 13.6257426,14.2973593 13.6613861,13.9409926 C13.7267327,12.8492661 13.7980198,11.7575397 13.8633663,10.6658132 C13.8990099,9.95873651 13.9643564,9.25165979 14,8.54458307 C14,8.29003545 13.9643564,8.0637709 13.8633663,7.83750635 C13.560396,7.20396561 12.8534653,6.88153863 12.1465347,7.03992382 Z" id="Shape"></path>
                    </g>
                </g>
            </g>
        </g>
    </g>
</svg>